<svg width="280" height="60" viewBox="0 0 280 60" fill="none" xmlns="http://www.w3.org/2000/svg">
<rect x="12" y="14" width="32" height="32" fill="black"/>
<circle cx="28" cy="30" r="14" fill="white"/>
<path d="M65.9531 20.9375V38H62.7422V20.9375H65.9531ZM71.25 20.9375V23.4805H57.5039V20.9375H71.25ZM77.7539 38.2344C76.793 38.2344 75.9297 38.0781 75.1641 37.7656C74.3984 37.4531 73.7461 37.0195 73.207 36.4648C72.6758 35.9023 72.2656 35.25 71.9766 34.5078C71.6953 33.7578 71.5547 32.9531 71.5547 32.0938V31.625C71.5547 30.6484 71.6953 29.7617 71.9766 28.9648C72.2578 28.1602 72.6562 27.4688 73.1719 26.8906C73.6875 26.3125 74.3047 25.8672 75.0234 25.5547C75.7422 25.2422 76.5352 25.0859 77.4023 25.0859C78.3008 25.0859 79.0938 25.2383 79.7812 25.543C80.4688 25.8398 81.043 26.2617 81.5039 26.8086C81.9648 27.3555 82.3125 28.0117 82.5469 28.7773C82.7812 29.5352 82.8984 30.375 82.8984 31.2969V32.5977H72.9609V30.4648H79.8516V30.2305C79.8359 29.7383 79.7422 29.2891 79.5703 28.8828C79.3984 28.4688 79.1328 28.1406 78.7734 27.8984C78.4141 27.6484 77.9492 27.5234 77.3789 27.5234C76.918 27.5234 76.5156 27.625 76.1719 27.8281C75.8359 28.0234 75.5547 28.3047 75.3281 28.6719C75.1094 29.0312 74.9453 29.4609 74.8359 29.9609C74.7266 30.4609 74.6719 31.0156 74.6719 31.625V32.0938C74.6719 32.625 74.7422 33.1172 74.8828 33.5703C75.0312 34.0234 75.2461 34.418 75.5273 34.7539C75.8164 35.082 76.1602 35.3398 76.5586 35.5273C76.9648 35.707 77.4258 35.7969 77.9414 35.7969C78.5898 35.7969 79.1758 35.6719 79.6992 35.4219C80.2305 35.1641 80.6914 34.7852 81.082 34.2852L82.6406 35.9023C82.375 36.293 82.0156 36.668 81.5625 37.0273C81.1172 37.3867 80.5781 37.6797 79.9453 37.9062C79.3125 38.125 78.582 38.2344 77.7539 38.2344ZM90.1758 35.7969C90.6133 35.7969 91.0039 35.7109 91.3477 35.5391C91.6914 35.3672 91.9648 35.125 92.168 34.8125C92.3789 34.5 92.4922 34.1367 92.5078 33.7227H95.4258C95.4102 34.582 95.168 35.3516 94.6992 36.0312C94.2305 36.7109 93.6055 37.25 92.8242 37.6484C92.0508 38.0391 91.1836 38.2344 90.2227 38.2344C89.2461 38.2344 88.3945 38.0703 87.668 37.7422C86.9414 37.4141 86.3359 36.957 85.8516 36.3711C85.375 35.7852 85.0156 35.1055 84.7734 34.332C84.5391 33.5586 84.4219 32.7305 84.4219 31.8477V31.4727C84.4219 30.5898 84.5391 29.7617 84.7734 28.9883C85.0156 28.2148 85.375 27.5352 85.8516 26.9492C86.3359 26.3633 86.9414 25.9062 87.668 25.5781C88.3945 25.25 89.2422 25.0859 90.2109 25.0859C91.2344 25.0859 92.1328 25.2852 92.9062 25.6836C93.6875 26.082 94.2969 26.6445 94.7344 27.3711C95.1797 28.0977 95.4102 28.9531 95.4258 29.9375H92.5078C92.4922 29.4844 92.3906 29.0781 92.2031 28.7188C92.0156 28.3594 91.75 28.0703 91.4062 27.8516C91.0625 27.6328 90.6445 27.5234 90.1523 27.5234C89.6289 27.5234 89.1914 27.6328 88.8398 27.8516C88.4961 28.0703 88.2266 28.3711 88.0312 28.7539C87.8438 29.1289 87.7109 29.5508 87.6328 30.0195C87.5625 30.4805 87.5273 30.9648 87.5273 31.4727V31.8477C87.5273 32.3633 87.5625 32.8555 87.6328 33.3242C87.7109 33.793 87.8438 34.2148 88.0312 34.5898C88.2266 34.957 88.4961 35.25 88.8398 35.4688C89.1914 35.6875 89.6367 35.7969 90.1758 35.7969ZM100.523 20V38H97.418V20H100.523ZM100.031 31.2031H99.1172C99.1172 30.3203 99.2344 29.5078 99.4688 28.7656C99.7031 28.0234 100.035 27.3789 100.465 26.832C100.895 26.2773 101.406 25.8477 102 25.543C102.602 25.2383 103.266 25.0859 103.992 25.0859C104.617 25.0859 105.184 25.1758 105.691 25.3555C106.207 25.5273 106.648 25.8047 107.016 26.1875C107.383 26.5703 107.664 27.0703 107.859 27.6875C108.062 28.2969 108.164 29.0391 108.164 29.9141V38H105.047V29.8906C105.047 29.3047 104.961 28.8438 104.789 28.5078C104.617 28.1641 104.371 27.918 104.051 27.7695C103.738 27.6211 103.352 27.5469 102.891 27.5469C102.391 27.5469 101.961 27.6445 101.602 27.8398C101.242 28.0273 100.945 28.2891 100.711 28.625C100.484 28.9609 100.312 29.3477 100.195 29.7852C100.086 30.2227 100.031 30.6953 100.031 31.2031ZM114.352 20.9375V38H111.129V20.9375H114.352ZM121.23 28.3086V30.8516H113.508V28.3086H121.23ZM122.133 20.9375V23.4805H113.508V20.9375H122.133ZM127.371 20V38H124.266V20H127.371ZM129.773 31.7891V31.543C129.773 30.6133 129.906 29.7578 130.172 28.9766C130.438 28.1875 130.824 27.5039 131.332 26.9258C131.84 26.3477 132.461 25.8984 133.195 25.5781C133.93 25.25 134.766 25.0859 135.703 25.0859C136.656 25.0859 137.5 25.25 138.234 25.5781C138.977 25.8984 139.602 26.3477 140.109 26.9258C140.617 27.5039 141.004 28.1875 141.27 28.9766C141.535 29.7578 141.668 30.6133 141.668 31.543V31.7891C141.668 32.7109 141.535 33.5664 141.27 34.3555C141.004 35.1367 140.617 35.8203 140.109 36.4062C139.602 36.9844 138.98 37.4336 138.246 37.7539C137.512 38.0742 136.672 38.2344 135.727 38.2344C134.789 38.2344 133.949 38.0742 133.207 37.7539C132.465 37.4336 131.84 36.9844 131.332 36.4062C130.824 35.8203 130.438 35.1367 130.172 34.3555C129.906 33.5664 129.773 32.7109 129.773 31.7891ZM132.867 31.543V31.7891C132.867 32.3438 132.922 32.8633 133.031 33.3477C133.141 33.832 133.309 34.2578 133.535 34.625C133.762 34.9922 134.055 35.2812 134.414 35.4922C134.781 35.6953 135.219 35.7969 135.727 35.7969C136.227 35.7969 136.656 35.6953 137.016 35.4922C137.375 35.2812 137.668 34.9922 137.895 34.625C138.129 34.2578 138.301 33.832 138.41 33.3477C138.52 32.8633 138.574 32.3438 138.574 31.7891V31.543C138.574 30.9961 138.52 30.4844 138.41 30.0078C138.301 29.5234 138.129 29.0977 137.895 28.7305C137.668 28.3555 137.371 28.0625 137.004 27.8516C136.645 27.6328 136.211 27.5234 135.703 27.5234C135.203 27.5234 134.773 27.6328 134.414 27.8516C134.055 28.0625 133.762 28.3555 133.535 28.7305C133.309 29.0977 133.141 29.5234 133.031 30.0078C132.922 30.4844 132.867 30.9961 132.867 31.543ZM147.445 34.9531L150.223 25.3203H152.191L151.605 28.6484L148.805 38H147.105L147.445 34.9531ZM145.91 25.3203L147.996 34.9766L148.184 38H146.227L142.898 25.3203H145.91ZM154.77 34.8359L156.809 25.3203H159.809L156.504 38H154.547L154.77 34.8359ZM152.496 25.3203L155.25 34.8594L155.613 38H153.914L151.09 28.6484L150.516 25.3203H152.496ZM176.777 33.5703C176.777 33.2422 176.727 32.9492 176.625 32.6914C176.531 32.4258 176.355 32.1875 176.098 31.9766C175.848 31.7578 175.492 31.5469 175.031 31.3438C174.578 31.1328 173.992 30.9141 173.273 30.6875C172.477 30.4375 171.734 30.1562 171.047 29.8438C170.359 29.5312 169.754 29.168 169.23 28.7539C168.715 28.3398 168.312 27.8633 168.023 27.3242C167.734 26.7773 167.59 26.1445 167.59 25.4258C167.59 24.7227 167.738 24.082 168.035 23.5039C168.34 22.9258 168.77 22.4297 169.324 22.0156C169.879 21.5938 170.531 21.2695 171.281 21.043C172.039 20.8164 172.875 20.7031 173.789 20.7031C175.055 20.7031 176.148 20.9336 177.07 21.3945C178 21.8555 178.719 22.4805 179.227 23.2695C179.734 24.0586 179.988 24.9453 179.988 25.9297H176.777C176.777 25.3984 176.664 24.9297 176.438 24.5234C176.219 24.1172 175.883 23.7969 175.43 23.5625C174.984 23.3281 174.422 23.2109 173.742 23.2109C173.086 23.2109 172.539 23.3086 172.102 23.5039C171.672 23.6992 171.348 23.9648 171.129 24.3008C170.918 24.6367 170.812 25.0117 170.812 25.4258C170.812 25.7383 170.887 26.0195 171.035 26.2695C171.184 26.5117 171.406 26.7422 171.703 26.9609C172 27.1719 172.367 27.3711 172.805 27.5586C173.25 27.7383 173.766 27.918 174.352 28.0977C175.289 28.3789 176.109 28.6914 176.812 29.0352C177.523 29.3789 178.113 29.7695 178.582 30.207C179.059 30.6445 179.414 31.1367 179.648 31.6836C179.891 32.2305 180.012 32.8516 180.012 33.5469C180.012 34.2812 179.867 34.9375 179.578 35.5156C179.289 36.0938 178.875 36.5859 178.336 36.9922C177.797 37.3984 177.148 37.707 176.391 37.918C175.641 38.1289 174.801 38.2344 173.871 38.2344C173.043 38.2344 172.223 38.125 171.41 37.9062C170.605 37.6797 169.875 37.3438 169.219 36.8984C168.562 36.4453 168.039 35.875 167.648 35.1875C167.258 34.4922 167.062 33.6797 167.062 32.75H170.297C170.297 33.2891 170.383 33.75 170.555 34.1328C170.734 34.5078 170.984 34.8164 171.305 35.0586C171.633 35.293 172.016 35.4648 172.453 35.5742C172.891 35.6836 173.363 35.7383 173.871 35.7383C174.527 35.7383 175.066 35.6484 175.488 35.4688C175.918 35.2812 176.238 35.0234 176.449 34.6953C176.668 34.3672 176.777 33.9922 176.777 33.5703ZM181.711 31.7891V31.543C181.711 30.6133 181.844 29.7578 182.109 28.9766C182.375 28.1875 182.762 27.5039 183.27 26.9258C183.777 26.3477 184.398 25.8984 185.133 25.5781C185.867 25.25 186.703 25.0859 187.641 25.0859C188.594 25.0859 189.438 25.25 190.172 25.5781C190.914 25.8984 191.539 26.3477 192.047 26.9258C192.555 27.5039 192.941 28.1875 193.207 28.9766C193.473 29.7578 193.605 30.6133 193.605 31.543V31.7891C193.605 32.7109 193.473 33.5664 193.207 34.3555C192.941 35.1367 192.555 35.8203 192.047 36.4062C191.539 36.9844 190.918 37.4336 190.184 37.7539C189.449 38.0742 188.609 38.2344 187.664 38.2344C186.727 38.2344 185.887 38.0742 185.145 37.7539C184.402 37.4336 183.777 36.9844 183.27 36.4062C182.762 35.8203 182.375 35.1367 182.109 34.3555C181.844 33.5664 181.711 32.7109 181.711 31.7891ZM184.805 31.543V31.7891C184.805 32.3438 184.859 32.8633 184.969 33.3477C185.078 33.832 185.246 34.2578 185.473 34.625C185.699 34.9922 185.992 35.2812 186.352 35.4922C186.719 35.6953 187.156 35.7969 187.664 35.7969C188.164 35.7969 188.594 35.6953 188.953 35.4922C189.312 35.2812 189.605 34.9922 189.832 34.625C190.066 34.2578 190.238 33.832 190.348 33.3477C190.457 32.8633 190.512 32.3438 190.512 31.7891V31.543C190.512 30.9961 190.457 30.4844 190.348 30.0078C190.238 29.5234 190.066 29.0977 189.832 28.7305C189.605 28.3555 189.309 28.0625 188.941 27.8516C188.582 27.6328 188.148 27.5234 187.641 27.5234C187.141 27.5234 186.711 27.6328 186.352 27.8516C185.992 28.0625 185.699 28.3555 185.473 28.7305C185.246 29.0977 185.078 29.5234 184.969 30.0078C184.859 30.4844 184.805 30.9961 184.805 31.543ZM199.137 20V38H196.031V20H199.137ZM209.637 34.9883V25.3203H212.754V38H209.824L209.637 34.9883ZM210.035 32.3633L210.996 32.3398C210.996 33.1914 210.902 33.9766 210.715 34.6953C210.527 35.4141 210.234 36.0391 209.836 36.5703C209.445 37.0938 208.949 37.5039 208.348 37.8008C207.746 38.0898 207.035 38.2344 206.215 38.2344C205.59 38.2344 205.02 38.1484 204.504 37.9766C203.988 37.7969 203.543 37.5195 203.168 37.1445C202.801 36.7617 202.516 36.2734 202.312 35.6797C202.109 35.0781 202.008 34.3555 202.008 33.5117V25.3203H205.102V33.5352C205.102 33.957 205.148 34.3086 205.242 34.5898C205.344 34.8711 205.48 35.1016 205.652 35.2812C205.832 35.4531 206.039 35.5781 206.273 35.6562C206.516 35.7266 206.773 35.7617 207.047 35.7617C207.797 35.7617 208.387 35.6133 208.816 35.3164C209.254 35.0117 209.566 34.6055 209.754 34.0977C209.941 33.582 210.035 33.0039 210.035 32.3633ZM221.496 25.3203V27.5469H214.23V25.3203H221.496ZM216.176 22.2031H219.281V34.3438C219.281 34.7188 219.332 35.0078 219.434 35.2109C219.535 35.4141 219.688 35.5508 219.891 35.6211C220.094 35.6914 220.336 35.7266 220.617 35.7266C220.82 35.7266 221.008 35.7148 221.18 35.6914C221.352 35.668 221.496 35.6445 221.613 35.6211L221.625 37.9414C221.367 38.0273 221.074 38.0977 220.746 38.1523C220.426 38.207 220.062 38.2344 219.656 38.2344C218.961 38.2344 218.352 38.1172 217.828 37.8828C217.305 37.6406 216.898 37.2539 216.609 36.7227C216.32 36.1836 216.176 35.4727 216.176 34.5898V22.2031ZM226.84 25.3203V38H223.734V25.3203H226.84ZM223.523 22.0039C223.523 21.543 223.68 21.1602 223.992 20.8555C224.312 20.5508 224.742 20.3984 225.281 20.3984C225.82 20.3984 226.246 20.5508 226.559 20.8555C226.879 21.1602 227.039 21.543 227.039 22.0039C227.039 22.457 226.879 22.8359 226.559 23.1406C226.246 23.4453 225.82 23.5977 225.281 23.5977C224.742 23.5977 224.312 23.4453 223.992 23.1406C223.68 22.8359 223.523 22.457 223.523 22.0039ZM229.242 31.7891V31.543C229.242 30.6133 229.375 29.7578 229.641 28.9766C229.906 28.1875 230.293 27.5039 230.801 26.9258C231.309 26.3477 231.93 25.8984 232.664 25.5781C233.398 25.25 234.234 25.0859 235.172 25.0859C236.125 25.0859 236.969 25.25 237.703 25.5781C238.445 25.8984 239.07 26.3477 239.578 26.9258C240.086 27.5039 240.473 28.1875 240.738 28.9766C241.004 29.7578 241.137 30.6133 241.137 31.543V31.7891C241.137 32.7109 241.004 33.5664 240.738 34.3555C240.473 35.1367 240.086 35.8203 239.578 36.4062C239.07 36.9844 238.449 37.4336 237.715 37.7539C236.98 38.0742 236.141 38.2344 235.195 38.2344C234.258 38.2344 233.418 38.0742 232.676 37.7539C231.934 37.4336 231.309 36.9844 230.801 36.4062C230.293 35.8203 229.906 35.1367 229.641 34.3555C229.375 33.5664 229.242 32.7109 229.242 31.7891ZM232.336 31.543V31.7891C232.336 32.3438 232.391 32.8633 232.5 33.3477C232.609 33.832 232.777 34.2578 233.004 34.625C233.23 34.9922 233.523 35.2812 233.883 35.4922C234.25 35.6953 234.688 35.7969 235.195 35.7969C235.695 35.7969 236.125 35.6953 236.484 35.4922C236.844 35.2812 237.137 34.9922 237.363 34.625C237.598 34.2578 237.77 33.832 237.879 33.3477C237.988 32.8633 238.043 32.3438 238.043 31.7891V31.543C238.043 30.9961 237.988 30.4844 237.879 30.0078C237.77 29.5234 237.598 29.0977 237.363 28.7305C237.137 28.3555 236.84 28.0625 236.473 27.8516C236.113 27.6328 235.68 27.5234 235.172 27.5234C234.672 27.5234 234.242 27.6328 233.883 27.8516C233.523 28.0625 233.23 28.3555 233.004 28.7305C232.777 29.0977 232.609 29.5234 232.5 30.0078C232.391 30.4844 232.336 30.9961 232.336 31.543ZM246.422 28.0273V38H243.328V25.3203H246.234L246.422 28.0273ZM245.93 31.2031H245.016C245.023 30.2812 245.148 29.4453 245.391 28.6953C245.633 27.9453 245.973 27.3008 246.41 26.7617C246.855 26.2227 247.383 25.8086 247.992 25.5195C248.602 25.2305 249.281 25.0859 250.031 25.0859C250.641 25.0859 251.191 25.1719 251.684 25.3438C252.176 25.5156 252.598 25.7891 252.949 26.1641C253.309 26.5391 253.582 27.0312 253.77 27.6406C253.965 28.2422 254.062 28.9844 254.062 29.8672V38H250.945V29.8438C250.945 29.2656 250.859 28.8086 250.688 28.4727C250.523 28.1367 250.281 27.8984 249.961 27.7578C249.648 27.6172 249.262 27.5469 248.801 27.5469C248.324 27.5469 247.906 27.6445 247.547 27.8398C247.195 28.0273 246.898 28.2891 246.656 28.625C246.422 28.9609 246.242 29.3477 246.117 29.7852C245.992 30.2227 245.93 30.6953 245.93 31.2031ZM263.766 34.5312C263.766 34.2656 263.695 34.0273 263.555 33.8164C263.414 33.6055 263.148 33.4141 262.758 33.2422C262.375 33.0625 261.812 32.8945 261.07 32.7383C260.414 32.5977 259.809 32.4219 259.254 32.2109C258.699 32 258.223 31.7461 257.824 31.4492C257.426 31.1445 257.113 30.7891 256.887 30.3828C256.668 29.9688 256.559 29.4922 256.559 28.9531C256.559 28.4297 256.672 27.9375 256.898 27.4766C257.125 27.0078 257.453 26.5977 257.883 26.2461C258.312 25.8867 258.836 25.6055 259.453 25.4023C260.07 25.1914 260.766 25.0859 261.539 25.0859C262.617 25.0859 263.543 25.2617 264.316 25.6133C265.098 25.9648 265.695 26.4492 266.109 27.0664C266.523 27.6758 266.73 28.3633 266.73 29.1289H263.637C263.637 28.793 263.559 28.4883 263.402 28.2148C263.254 27.9414 263.023 27.7227 262.711 27.5586C262.398 27.3867 262.004 27.3008 261.527 27.3008C261.098 27.3008 260.734 27.3711 260.438 27.5117C260.148 27.6523 259.93 27.8359 259.781 28.0625C259.633 28.2891 259.559 28.5391 259.559 28.8125C259.559 29.0156 259.598 29.1992 259.676 29.3633C259.762 29.5195 259.898 29.6641 260.086 29.7969C260.273 29.9297 260.527 30.0508 260.848 30.1602C261.176 30.2695 261.578 30.375 262.055 30.4766C263 30.6641 263.824 30.9141 264.527 31.2266C265.238 31.5312 265.793 31.9375 266.191 32.4453C266.59 32.9531 266.789 33.6016 266.789 34.3906C266.789 34.9531 266.668 35.4688 266.426 35.9375C266.184 36.3984 265.832 36.8008 265.371 37.1445C264.91 37.4883 264.359 37.7578 263.719 37.9531C263.078 38.1406 262.355 38.2344 261.551 38.2344C260.387 38.2344 259.402 38.0273 258.598 37.6133C257.793 37.1914 257.184 36.6602 256.77 36.0195C256.355 35.3711 256.148 34.6992 256.148 34.0039H259.113C259.137 34.4961 259.27 34.8906 259.512 35.1875C259.754 35.4844 260.059 35.6992 260.426 35.832C260.801 35.957 261.195 36.0195 261.609 36.0195C262.078 36.0195 262.473 35.957 262.793 35.832C263.113 35.6992 263.355 35.5234 263.52 35.3047C263.684 35.0781 263.766 34.8203 263.766 34.5312Z" fill="black"/>
</svg>
